# xmcd CD database file generated by OrangeCD 5.0
#
# Track frame offsets:
#	150
#	21159
#	41800
#	54251
#	73590
#	92536
#	110971
#	134968
#	155452
#	178781
#	199923
#	226644
#	249718
#
# Disc length: 3564 seconds
#
# Revision: 24
# Processed by: cddbd v1.5.1PL2 Copyright (c) Steve Scherf et al.
# Submitted via: OrangeCD 5.0
#
DISCID=ba0dea0d
DTITLE=Aerosmith - Permanent Outtakes [CDOne)
DYEAR=1987
DGENRE=Hard Rock
TTITLE0=Right Key, Wrong Key Hole
TTITLE1=Angel
TTITLE2=I'm Down
TTITLE3=Dude (Looks Like A Lady) (Mix 1)
TTITLE4=St. John (Mix 1)
TTITLE5=St. John (Mix 2)
TTITLE6=Girl Keeps Coming Apart
TTITLE7=Permanent Vacation (Mix 3)
TTITLE8=Dude (Looks Like A Lady)
TTITLE9=Magic Touch
TTITLE10=Got To Find A Way
TTITLE11=Samurai
TTITLE12=Walking On Danger Street
EXTD=
EXTT0=
EXTT1=
EXTT2=
EXTT3=
EXTT4=
EXTT5=
EXTT6=
EXTT7=
EXTT8=
EXTT9=
EXTT10=
EXTT11=
EXTT12=
PLAYORDER=
